# xmcd
#
# Track frame offsets: 
#        150
#        31573
#        62977
#        77955
#        92913
#        107250
#        121360
#        136162
#        150904
#        167878
#        184835
#        196776
#        208744
#        228597
#        248348
#        263768
#        279120
#        292517
#
# Disc length: 3914 seconds
#
# Revision: 0
# Processed by: cddbd v1.5.2PL0 Copyright (c) Steve Scherf et al.
# Submitted via: ExactAudioCopyFreeDBPlugin 1.0
#
DISCID=e10f4812
DTITLE=Greg Koch - Greg Koch - Hal Leonard Play-Along
DYEAR=2005
DGENRE=Blues
TTITLE0=Chief's Blues - Demo Track
TTITLE1=Chief's Blues - Backing Track
TTITLE2=Death Of A Bassman - Demo Track
TTITLE3=Death Of A Bassman - Backing Track
TTITLE4=Dylan The Villain - Demo Track
TTITLE5=Dylan The Villain - Backing Track
TTITLE6=The Grip - Demo Track
TTITLE7=The Grip - Backing Track
TTITLE8=Holy Grail - Demo Track
TTITLE9=Holy Grail - Backing Track
TTITLE10=Spank It - Demo Track
TTITLE11=Spank It - Backing Track
TTITLE12=Tonus Diabolicus - Demo Track
TTITLE13=Tonus Diabolicus - Backing Track
TTITLE14=Zoiks - Demo Track
TTITLE15=Zoiks - Backing Track
TTITLE16=Tuning Notes
TTITLE17=Non-Audio Track
EXTD=
EXTT0=
EXTT1=
EXTT2=
EXTT3=
EXTT4=
EXTT5=
EXTT6=
EXTT7=
EXTT8=
EXTT9=
EXTT10=
EXTT11=
EXTT12=
EXTT13=
EXTT14=
EXTT15=
EXTT16=
EXTT17=
PLAYORDER=
